<?xml version="1.0" standalone="no"?>
<!DOCTYPE svg PUBLIC "-//W3C//DTD SVG 20010904//EN"
 "http://www.w3.org/TR/2001/REC-SVG-20010904/DTD/svg10.dtd">
<svg version="1.0" xmlns="http://www.w3.org/2000/svg"
 width="640.000000pt" height="1280.000000pt" viewBox="0 0 640.000000 1280.000000"
 preserveAspectRatio="xMidYMid meet">
<metadata>
Created by potrace 1.15, written by Peter Selinger 2001-2017
</metadata>
<g transform="translate(0.000000,1280.000000) scale(0.100000,-0.100000)"
fill="#000000" stroke="none">
<path d="M1544 12781 c-210 -57 -410 -230 -494 -426 -67 -156 -82 -270 -83
-605 -1 -222 1 -252 21 -324 41 -149 101 -220 284 -336 244 -154 332 -183 430
-138 64 30 234 181 353 314 146 165 172 249 162 524 -16 409 -79 722 -171 843
-39 53 -141 122 -209 143 -83 25 -210 28 -293 5z"/>
<path d="M2763 12656 c-132 -43 -267 -172 -347 -332 -185 -371 -87 -856 206
-1015 58 -32 70 -34 153 -34 82 0 96 3 158 33 316 156 457 721 276 1110 -44
96 -125 184 -203 222 -61 29 -179 37 -243 16z"/>
<path d="M3725 12297 c-66 -22 -106 -47 -162 -99 -68 -65 -95 -113 -137 -240
-99 -298 -95 -681 8 -784 53 -53 154 -79 306 -79 110 0 130 3 172 23 80 40
128 127 188 340 82 291 50 566 -87 737 -72 91 -192 133 -288 102z"/>
<path d="M4415 11585 c-120 -58 -224 -202 -282 -392 -23 -77 -27 -105 -27
-233 -1 -124 2 -155 22 -217 39 -126 101 -173 227 -173 219 0 430 177 492 413
34 129 16 313 -42 433 -81 167 -246 239 -390 169z"/>
<path d="M2520 10896 c-68 -25 -137 -65 -210 -120 -92 -70 -153 -99 -272 -131
-123 -32 -194 -43 -374 -55 -306 -22 -433 -64 -538 -181 -121 -134 -203 -481
-213 -909 -6 -246 8 -384 57 -573 134 -522 455 -938 1180 -1532 413 -338 569
-486 643 -612 93 -156 158 -342 198 -569 58 -325 8 -1007 -107 -1467 -104
-412 -247 -660 -436 -755 -159 -79 -353 -238 -636 -516 -276 -272 -463 -495
-530 -631 -77 -154 -122 -571 -122 -1120 0 -148 5 -322 10 -385 25 -278 79
-383 456 -887 311 -416 368 -452 704 -453 278 0 503 66 715 210 521 354 874
1142 994 2215 32 281 41 465 51 960 14 725 33 938 130 1525 38 228 94 570 125
760 83 504 151 825 193 905 14 28 335 768 407 940 67 159 119 379 154 655 59
459 51 944 -19 1145 -26 76 -58 123 -134 204 -76 79 -155 136 -271 194 -177
88 -396 248 -600 436 -242 224 -518 407 -860 571 -327 158 -575 220 -695 176z"/>
<path d="M5102 10898 c-104 -18 -255 -132 -309 -235 -95 -177 -109 -464 -32
-669 37 -97 120 -142 247 -131 201 17 374 161 457 381 46 121 26 251 -66 442
-81 166 -175 234 -297 212z"/>
</g>
</svg>
